<?xml version="1.0" encoding="UTF-8" standalone="no"?>
<svg
   version="1.1"
   width="256"
   height="256"
   id="svg129"
   sodipodi:docname="icon.svg"
   inkscape:version="1.4 (e7c3feb100, 2024-10-09)"
   inkscape:export-filename="icon.png"
   inkscape:export-xdpi="9"
   inkscape:export-ydpi="9"
   xmlns:inkscape="http://www.inkscape.org/namespaces/inkscape"
   xmlns:sodipodi="http://sodipodi.sourceforge.net/DTD/sodipodi-0.dtd"
   xmlns="http://www.w3.org/2000/svg"
   xmlns:svg="http://www.w3.org/2000/svg">
  <defs
     id="defs129" />
  <sodipodi:namedview
     id="namedview129"
     pagecolor="#ffffff"
     bordercolor="#000000"
     borderopacity="0.25"
     inkscape:showpageshadow="2"
     inkscape:pageopacity="0.0"
     inkscape:pagecheckerboard="0"
     inkscape:deskcolor="#d1d1d1"
     inkscape:zoom="3.6835937"
     inkscape:cx="131.80064"
     inkscape:cy="139.80912"
     inkscape:window-width="2107"
     inkscape:window-height="1678"
     inkscape:window-x="1299"
     inkscape:window-y="276"
     inkscape:window-maximized="0"
     inkscape:current-layer="svg129" />
  <path
     d="M 50.820296,1.0537055 C 334.23579,0.30493923 -70.577615,2.0234424 197.94392,0.94560517 246.82234,0.76370634 255.89942,29.034819 255.89533,50.072868 c 0.45335,172.524022 -0.36833,9.464808 0.15762,149.743862 0.10272,24.97667 -7.60939,51.06937 -39.10971,54.80077 -51.88665,1.36365 -103.8288,0.68904 -155.735869,0.75475 C 26.67908,258.00475 1.0132941,238.302 0.71749123,204.60458 -0.20168137,-143.48382 1.986759,427.48796 0.6578238,57.977514 -0.12343114,6.0472725 36.401725,1.0196426 50.82067,1.0537878 Z"
     fill="#ebf0e9"
     id="path2"
     sodipodi:nodetypes="cccccccccc"
     style="stroke-width:0.999999" />
  <path
     d="m 139.69937,34.517738 c 3.08946,1.864758 4.77696,3.989344 5.92152,7.393825 0.41724,2.362228 0.39745,10.885425 -6.85308,12.335544 l -0.45687,38.377212 h 9.13743 c -0.0547,-11.13375 -0.0595,-13.844593 1.4e-4,-15.533633 2.28736,-1.148356 6.17384,-0.474205 8.68056,-0.456657 v 15.533633 c 3.40246,0.335408 3.40246,0.335408 4.93713,-0.84571 0.38666,-0.396168 0.77335,-0.792339 1.17174,-1.200508 0.21748,-0.217672 0.43494,-0.43534 0.65899,-0.659604 8.79975,-9.068393 17.56366,-18.158963 27.04063,-26.533958 -0.18375,-0.537112 -0.18375,-0.537112 -0.37121,-1.08507 -0.17904,-0.546533 -0.35809,-1.093065 -0.54253,-1.65616 -0.12075,-0.316259 -0.24146,-0.63252 -0.36586,-0.958361 -1.54418,-4.383737 -1.7426,-9.044645 -0.0338,-13.404545 2.79856,-5.840138 6.749,-8.888755 12.73529,-11.221912 5.07744,-1.610431 10.38963,-0.29135 15.07676,1.827487 4.04903,2.383152 6.98123,6.142071 8.68057,10.508056 1.26018,5.150044 0.4735,10.328404 -2.05949,14.967898 -3.05532,4.639791 -7.06255,8.056702 -12.56041,9.246295 -1.63555,0.12336 -3.2717,0.12659 -4.91136,0.142773 -0.44052,0.01325 -0.88108,0.02649 -1.33493,0.04016 -3.0064,0.02654 -4.87775,-0.459316 -7.45985,-2.010413 l -0.43411,-0.479643 c -1.96993,1.661784 -12.52341,11.558573 -15.32797,14.414225 -2.71016,2.759532 -5.48501,5.374573 -8.45992,7.847569 -0.9196,0.773282 -1.81227,1.570775 -2.70487,2.374933 -0.45984,0.371029 -0.45984,0.371029 -0.92891,0.749552 -2.30012,2.130333 -2.59494,4.064859 -2.72784,7.077944 -0.0329,1.21931 -0.0375,2.43132 -0.027,3.6514 0.41293,-0.0139 0.82588,-0.0277 1.25137,-0.042 13.59463,-0.43927 27.18002,-0.46724 40.78082,-0.41494 l -0.45688,-1.37061 c -0.43499,-3.442636 0.16744,-5.9245 2.28436,-8.680555 2.45327,-2.643198 5.1213,-4.560766 8.82334,-4.768597 3.32231,0.141494 6.18028,1.255346 8.48067,3.683527 2.32301,2.965581 3.61294,6.195242 3.42832,9.988715 -0.56469,3.7433 -2.17927,6.62541 -5.1987,8.91434 -2.37065,1.42937 -4.54258,2.34971 -7.33849,2.34147 -0.60161,0.002 -0.60161,0.002 -1.21537,0.004 -16.6134,-1.42873 -34.06002,-0.84391 -50.83944,-0.97444 v 10.05118 c 14.08872,0.27605 28.18782,0.004 42.2762,0.28426 2.6716,-0.0216 4.39222,-0.60922 6.64652,-2.04993 17.40775,-10.30341 21.47522,32.20659 -1.00653,22.39632 -3.37102,-2.07447 -4.95157,-5.47907 -5.884,-9.20882 v -1.82749 l -42.03219,-0.45687 c -0.84763,11.54647 -0.84763,11.54647 3.61924,15.92269 1.65548,1.6059 3.15575,3.25492 4.57945,5.0702 2.55557,3.14727 5.41403,5.95384 8.3058,8.78942 8.72213,8.58086 16.48182,17.93068 17.76087,18.64607 1.51161,0.059 2.88209,-0.0488 4.37706,-0.22832 5.115,-0.56644 10.03177,0.96188 14.23329,3.92434 3.2759,2.76191 5.90612,7.11301 6.51759,11.38075 0.4233,6.33571 -0.34969,11.88068 -4.56872,16.90424 -3.71116,3.86263 -7.87545,6.35908 -13.33493,6.53898 -20.86052,-0.51297 -23.46572,-22.04228 -16.36176,-31.66691 0.31328,-0.60474 0.61965,-1.21319 0.91374,-1.82749 -2.94645,-3.4289 -6.11715,-6.6087 -9.338,-9.7779 -2.1684,-2.14401 -4.21436,-4.35218 -6.19563,-6.66947 -2.65337,-2.99881 -5.375,-5.93155 -8.11216,-8.85357 -2.01239,-2.1503 -10.86052,-11.09141 -11.99019,-11.24879 -0.93955,12.25767 0.45172,18.39359 7.68668,27.57292 0.96044,1.24158 0.96044,1.24158 2.18124,2.22169 1.39931,1.62313 1.37944,2.44933 1.37099,4.57026 -0.97987,10.10878 1.77134,25.46937 -1.18892,34.62275 -2.00587,1.3837 -4.53547,0.9784 -6.85307,0.91374 -1.12135,-5.03061 -0.93659,-10.31993 -0.91375,-15.4444 -2.2e-4,-1.59862 0,-3.19721 -0.005,-4.79582 0.005,-1.09328 0.0114,-2.18657 0.0274,-3.27975 1.22317,-20.43565 -10.80399,-13.80336 -11.30419,-24.166 -0.0151,-0.29604 -0.0297,-0.59207 -0.0452,-0.89708 -0.16492,-3.7387 -0.16125,-5.81874 -0.0956,-21.77517 h -8.68056 c -0.0634,6.64007 -0.11221,13.28006 -0.14205,19.92038 -0.0142,3.08322 -0.0333,6.16625 -0.0648,9.24934 -0.0301,2.97415 -0.0461,5.94815 -0.0533,8.92245 -0.005,1.13596 -0.0151,2.27193 -0.0297,3.40781 -0.0196,1.58856 -0.0228,3.17629 -0.0214,4.76495 -0.0101,0.47191 -0.0196,0.94381 -0.0297,1.43001 0.0301,3.4934 0.19787,4.10598 3.08232,5.30216 3.46831,3.31271 4.30074,5.59238 3.65498,11.87865 -1.01297,3.59459 -3.37596,6.11367 -6.3962,8.22369 -9.9558,4.88246 -19.01397,-6.51444 -15.56059,-15.77278 1.29277,-2.11544 2.97127,-4.35311 5.33594,-5.23091 1.95444,-1.17146 1.37733,-3.78898 1.34635,-5.77896 3.2e-4,-0.49928 0,-0.99857 0,-1.51298 0,-1.65403 -0.0191,-3.30748 -0.0375,-4.9614 -0.005,-1.14528 -0.007,-2.29056 -0.0101,-3.43583 -0.008,-2.70867 -0.0261,-5.41716 -0.0487,-8.12574 -0.0279,-3.38615 -0.0402,-6.77234 -0.053,-10.15858 -0.0247,-6.04087 -0.0647,-12.08152 -0.11151,-18.12226 h -9.59431 c 0.2482,39.19942 -0.28976,-10.19653 0.0568,23.02022 -0.0568,1.23295 -7.82175,9.41765 -8.78547,10.37423 -1.78857,1.80334 -1.89453,2.94693 -1.90868,5.42245 -1.2931,9.11074 2.06382,24.1806 -1.2394,32.45505 h -6.3962 c -1.23286,-3.7896 -1.6828,-15.58782 -2.145158,-33.62646 -0.04468,-0.82104 -0.04468,-0.82104 -0.09025,-1.65868 -0.134402,-8.73735 11.320498,-14.97073 11.829708,-14.97073 v -20.55954 c -3.22143,0.81762 -5.03125,4.13849 -7.30994,6.3962 -1.34861,1.33236 -2.65163,2.67091 -3.88341,4.11185 -5.231713,5.61043 -12.901463,13.72855 -22.66495,23.10315 -0.45106,0.4486 -0.45106,0.4486 -0.911235,0.90625 -0.400982,0.39131 -0.400982,0.39131 -0.810065,0.79052 -0.618486,0.7635 -0.618486,0.7635 -0.404779,1.73876 0.421719,1.05747 0.989456,1.86842 1.661902,2.78677 3.036185,4.50318 3.255187,8.85618 2.685907,14.22369 -1.14165,5.62584 -4.55341,10.27416 -9.235591,13.39562 -3.104606,1.66215 -5.778387,2.23425 -9.298049,2.19155 -0.604084,-0.006 -0.604084,-0.006 -1.220367,-0.0115 -5.093588,-0.13191 -8.869673,-1.67127 -12.571443,-5.21398 -4.742558,-5.18717 -5.428125,-10.86775 -5.129098,-17.62079 0.229879,-2.46725 1.132927,-4.48856 2.387867,-6.5934 0.203773,-0.34511 0.407543,-0.69024 0.617489,-1.04582 2.544667,-3.79566 7.090772,-6.45774 11.502101,-7.47769 3.524644,-0.49 7.229512,-0.3658 10.72399,0.29982 1.180854,-2.67053 28.511837,-30.12869 31.704388,-33.88881 0.813303,-0.92411 1.690503,-1.79044 2.560983,-2.66092 l 0.45687,-11.87865 H 58.814132 l -0.456871,4.11184 c -3.31449,8.83439 -16.723087,12.39422 -21.613953,-1.15289 -0.864081,-3.09507 -0.354641,-6.03956 1.054729,-8.89829 1.707306,-2.51127 3.949025,-4.89425 6.853074,-5.93933 6.065489,-0.88897 10.689828,1.5524 11.421791,2.28436 1.96018,0.0785 11.552606,0.17312 46.144028,0.45689 v -10.05117 c -16.215171,-0.22394 -32.429849,-0.48085 -48.646839,-0.51226 -4.239498,0.74165 -8.144637,1.1045 -12.061758,-1.39186 -2.66204,-2.29926 -4.517414,-5.09405 -5.08091,-8.60382 -0.150091,-3.70229 0.215748,-6.784259 2.74123,-9.594302 7.339081,-7.339098 20.344647,-6.517566 20.10235,10.051172 14.148632,0.73509 28.324475,0.74822 42.489057,0.91375 0.19323,-5.046096 0.19323,-5.046096 -1.834738,-9.473053 -0.594692,-0.596656 -1.207827,-1.175394 -1.836299,-1.736359 -0.32533,-0.316718 -0.650658,-0.633434 -0.985847,-0.959746 -1.031049,-0.996131 -2.083384,-1.965607 -3.138488,-2.936153 -0.694884,-0.66436 -1.388237,-1.330328 -2.080014,-1.997923 -2.772789,-2.659249 -5.595886,-5.250939 -8.497148,-7.769516 -1.252225,-1.092614 -2.478912,-2.211958 -3.700074,-3.339065 -0.249526,-0.230126 -0.499051,-0.460257 -0.756137,-0.697355 -2.508723,-2.328468 -4.926405,-4.742048 -7.32478,-7.183679 -0.295056,0.164898 -0.590113,0.329802 -0.894111,0.499703 C 42.873721,83.077015 30.117949,37.241881 58.97475,33.550902 c 2.678408,-0.0138 27.490885,0.625997 19.027987,29.377209 8.879208,11.030217 23.163053,16.766523 29.696653,29.696651 h 4.11185 V 76.634258 h 8.68056 v 15.990504 l 9.40827,0.06201 c -0.17237,-1.961149 -0.38453,-9.83549 -0.7277,-37.982356 -6.34784,-2.211893 -8.25036,-9.627624 -5.59847,-15.455121 1.5689,-2.717522 3.29254,-4.562717 6.25878,-5.716248 3.43257,-0.887008 6.71812,-0.656772 9.86555,0.985128 z"
     fill="#0c4b46"
     id="path3"
     sodipodi:nodetypes="cccccccccccccccccccccccccsccccccccccccccccccccccccccccccccccccccccccccccccccccccccccccccsccccccccccccccccsccccccccccccccccccccccccccccccccccccccccccccccccccccccc"
     style="stroke-width:0.999999" />
  <text
     xml:space="preserve"
     style="font-stretch:condensed;font-size:31.0816px;line-height:1;font-family:'Roboto Condensed';-inkscape-font-specification:'Roboto Condensed,  Condensed';text-align:center;text-decoration-color:#000000;letter-spacing:0px;writing-mode:lr-tb;direction:ltr;text-anchor:middle;fill:#000000;stroke:#000000;stroke-width:0.755906;paint-order:stroke fill markers"
     x="61.22723"
     y="62.106792"
     id="text129"><tspan
       sodipodi:role="line"
       id="tspan129"
       x="61.22723"
       y="62.106792"
       style="font-size:31.0816px;fill:#ffffff;stroke-width:0.755906">1</tspan></text>
  <text
     xml:space="preserve"
     style="font-stretch:condensed;font-size:31.0816px;line-height:1;font-family:'Roboto Condensed';-inkscape-font-specification:'Roboto Condensed,  Condensed';text-align:center;text-decoration-color:#000000;letter-spacing:0px;writing-mode:lr-tb;direction:ltr;text-anchor:middle;fill:#000000;stroke:#000000;stroke-width:0.755906;paint-order:stroke fill markers"
     x="61.520779"
     y="210.18079"
     id="text129-2"><tspan
       sodipodi:role="line"
       id="tspan129-2"
       x="61.520779"
       y="210.18079"
       style="font-size:31.0816px;fill:#ffffff;stroke-width:0.755906">2</tspan></text>
</svg>
